{"title":"Complex World - 1992 - VHSRip.XVID.AC3","uid":7010996,"size":725163172,"categoryP":"video","categoryS":"movies","magnet":"?xt=urn:btih:ea2588fb554d40dc9c176049e24b7f9f485d8255&amp;dn=Complex+World+-+1992+-+VHSRip.XVID.AC3&amp;tr=udp%3A%2F%2Ftracker.openbittorrent.com%3A80&amp;tr=udp%3A%2F%2Fopen.demonii.com%3A1337&amp;tr=udp%3A%2F%2Ftracker.coppersurfer.tk%3A6969&amp;tr=udp%3A%2F%2Fexodus.desync.com%3A6969","seeders":0,"leechers":1,"uploader":"skepticink","files":-1,"time":1328455173,"description":"Complex World - 1992 - VHSRip.XVID.AC3tt\n======================================\n &lt;a href=&quot;\nhttp://www.imdb.com/title/tt0099295/&quot; rel=&quot;nofollow&quot; target=&quot;_NEW&quot;&gt;\nhttp://www.imdb.com/title/tt0099295/&lt;/a&gt;\n\nThe Heartbreak Hotel nightclub in Providence is having a busy night: the owner's politician father is trying to shut the club down, one of the bands is making phone calls to the afterworld, and a pathetic folk-singer/terrorist is planning to make this his night of flaming glory. Includes such musical numbers as &quot;I Married a Tree&quot; and &quot;Why Do We Feed the Broads?&quot;\n\n==========\n\nSource : VHS\nSize : 691 MB\nRuntime : 01:21:11\nGenre : Comedy | Musical | Action\nIMDb : 6.3/10 (81 users)\nDirector : Jim Wolpaw\nWriters : Jim Wolpaw, Rich Lupo, Dennis Maloney and Geoff Adams\nStarring : Stanley Matis, Margo Dionne and Allen Oliver\n\n=====\n\nVideo\n\nID                               : 0\nFormat                           : MPEG-4 Visual\nFormat profile                   : Advanced Simple@L5\nFormat settings, BVOP            : 2\nFormat settings, QPel            : No\nFormat settings, GMC             : No warppoints\nFormat settings, Matrix          : Default (H.263)\nCodec ID                         : XVID\nCodec ID/Hint                    : XviD\nDuration                         : 1h 21mn\nBit rate                         : 993 Kbps\nWidth                            : 720 pixels\nHeight                           : 480 pixels\nDisplay aspect ratio             : 4:3\nFrame rate                       : 29.970 fps\nStandard                         : NTSC\nColor space                      : YUV\nChroma subsampling               : 4:2:0\nBit depth                        : 8 bits\nScan type                        : Progressive\nCompression mode                 : Lossy\nBits/(Pixel*Frame)               : 0.096\nStream size                      : 576 MiB (83%)\nWriting library                  : XviD 1.1.2 (UTC 2006-11-01)\n\nAudio\n\nID                               : 1\nFormat                           : AC-3\nFormat/Info                      : Audio Coding 3\nMode extension                   : CM (complete main)\nCodec ID                         : 2000\nDuration                         : 1h 21mn\nBit rate mode                    : Constant\nBit rate                         : 192 Kbps\nChannel(s)                       : 2 channels\nChannel positions                : Front: L R\nSampling rate                    : 48.0 KHz\nBit depth                        : 16 bits\nCompression mode                 : Lossy\nDelay relative to video          : 33ms\nStream size                      : 111 MiB (16%)\nAlignment                        : Split accross interleaves\nInterleave, duration             : 500 ms (14.98 video frames)\nInterleave, preload duration     : 500 ms\n\n","torrent":{"xt":"urn:btih:ea2588fb554d40dc9c176049e24b7f9f485d8255","amp;dn":"Complex+World+-+1992+-+VHSRip.XVID.AC3","amp;tr":["udp%3A%2F%2Ftracker.openbittorrent.com%3A80","udp%3A%2F%2Fopen.demonii.com%3A1337","udp%3A%2F%2Ftracker.coppersurfer.tk%3A6969","udp%3A%2F%2Fexodus.desync.com%3A6969"],"infoHash":"ea2588fb554d40dc9c176049e24b7f9f485d8255","infoHashBuffer":{"type":"Buffer","data":[234,37,136,251,85,77,64,220,156,23,96,73,226,75,127,159,72,93,130,85]},"announce":[],"urlList":[]}}